<svg width="318" height="192" viewBox="0 0 318 192" fill="none" xmlns="http://www.w3.org/2000/svg">
<path d="M295.451 64.031L253.373 21.953C253.347 21.927 253.319 21.903 253.293 21.877C253.267 21.851 253.236 21.816 253.206 21.786C240.927 9.50816 224.739 1.91262 207.448 0.315461C190.157 -1.2817 172.853 3.22017 158.532 13.041C144.211 3.22017 126.907 -1.2817 109.616 0.315461C92.3252 1.91262 76.1378 9.50816 63.8585 21.786L21.7805 63.863C8.67053 76.9763 0.9309 94.5133 0.0786684 113.036C-0.773563 131.559 5.32304 149.733 17.1735 163.995C29.024 178.256 45.7737 187.578 64.1396 190.132C82.5055 192.686 101.163 188.289 116.455 177.802C128.837 186.293 143.498 190.839 158.511 190.844C173.525 190.848 188.188 186.31 200.575 177.826C215.849 188.378 234.517 192.836 252.911 190.326C271.305 187.815 288.095 178.518 299.984 164.259C311.872 150 317.998 131.811 317.16 113.266C316.321 94.7201 308.578 77.1585 295.451 64.031ZM93.6065 156.731C84.1075 161.268 73.3105 162.3 63.1237 159.646C52.937 156.993 44.0163 150.823 37.9383 142.228C31.8604 133.633 29.0164 123.167 29.9091 112.678C30.8017 102.189 35.3735 92.3532 42.8165 84.909L84.8935 42.831C91.4245 36.3086 99.8145 31.9678 108.911 30.4049C118.008 28.842 127.366 30.1335 135.699 34.102L105.935 63.863C94.5213 75.218 87.132 89.9931 84.8935 105.937C84.4007 109.423 84.152 112.939 84.1495 116.46C84.1198 130.379 88.0231 144.023 95.4095 155.821C94.8135 156.139 94.2125 156.441 93.6065 156.728V156.731ZM190.09 148.021C181.711 156.345 170.374 161.007 158.563 160.988C146.752 160.968 135.431 156.267 127.079 147.916C118.728 139.564 114.027 128.243 114.007 116.432C113.988 104.621 118.65 93.2844 126.974 84.905L158.532 53.347L190.09 84.905C198.445 93.2811 203.137 104.629 203.137 116.46C203.137 128.29 198.445 139.638 190.09 148.014V148.021ZM274.412 148.188C267.85 154.733 259.416 159.076 250.277 160.617C241.138 162.158 231.746 160.82 223.401 156.788C222.801 156.499 222.207 156.196 221.62 155.879C229.029 144.068 232.945 130.402 232.915 116.46C232.912 112.939 232.664 109.423 232.171 105.937C229.933 89.9931 222.543 75.218 211.129 63.863L181.547 34.282L181.38 34.115C189.709 30.1483 199.062 28.8559 208.155 30.4151C217.248 31.9744 225.635 36.3089 232.167 42.824C232.197 42.854 232.225 42.886 232.254 42.916C232.283 42.946 232.308 42.966 232.334 42.992L274.215 84.873L274.415 85.073C282.784 93.443 287.486 104.795 287.486 116.631C287.486 128.467 282.784 139.819 274.415 148.189L274.412 148.188Z" fill="url(#paint0_linear)"/>
<defs>
<linearGradient id="paint0_linear" x1="86.9227" y1="188.908" x2="159.459" y2="-12.7974" gradientUnits="userSpaceOnUse">
<stop stop-color="#666FCF"/>
<stop offset="1" stop-color="#FF2539"/>
</linearGradient>
</defs>
</svg>
